# xmcd
#
# Track frame offsets: 
#        150
#        32727
#        65881
#        132293
#        185708
#
# Disc length: 2896 seconds
#
# Revision: 0
# Processed by: cddbd v1.5.2PL0 Copyright (c) Steve Scherf et al.
# Submitted via: ExactAudioCopy v0.99pb1
#
DISCID=4a0b4e05
DTITLE=Mick Taylor - Estadio Centenario, Montevideo, Uruguay - October
DTITLE=3, 1990
DYEAR=1990
DGENRE=Blues
TTITLE0=I Wonder Why
TTITLE1=Laundromat Blues
TTITLE2=Red House
TTITLE3=Goin' South
TTITLE4=You Gotta Move
EXTD=
EXTT0=
EXTT1=
EXTT2=
EXTT3=
EXTT4=
PLAYORDER=
